<svg width="84" height="372" viewBox="0 0 84 372" fill="none" xmlns="http://www.w3.org/2000/svg">
<path d="M42.8579 100.477C42.8579 159.94 16.5296 150.797 19.1416 189.543C21.7537 228.288 77.9125 227.853 73.9945 278.352C70.0764 328.852 42.8579 312.09 42.8579 371.284" stroke="#F9E7D6" stroke-width="18"/>
<path d="M18.3553 30.6938H71.8364V76.1857C71.8364 90.9541 59.8643 102.926 45.0959 102.926H38.3553C27.3096 102.926 18.3553 93.9719 18.3553 82.9262V30.6938Z" fill="#F9E7D6"/>
<circle cx="35.719" cy="55.9155" r="7.65559" stroke="#D2A96A" stroke-width="2"/>
<circle cx="35.7189" cy="55.9156" r="5.12962" fill="#1E1E1E"/>
<circle cx="36.9284" cy="53.8417" r="1.20951" fill="white"/>
<path d="M36.0703 63.7561C36.0703 63.7561 35.6469 78.6876 37.9781 87.9456C40.3092 97.2036 43.6906 97.8906 52.0827 102.02" stroke="#D1AE78" stroke-linecap="round"/>
<path d="M31.1361 68.5768C28.5226 70.9047 26.6725 72.0762 24.5686 72.2014C22.8418 72.3041 21.884 72.8498 21.884 73.9844C21.884 75.119 23.7896 75.9041 25.1096 75.1352C27.7696 73.5859 30.687 71.6503 31.1361 68.5768Z" fill="#463227" stroke="#463227" stroke-miterlimit="16" stroke-linejoin="round"/>
<path d="M14.5661 68.5768C16.0707 70.9047 17.1358 72.0762 18.3471 72.2014C19.3412 72.3041 19.8926 72.8498 19.8926 73.9844C19.8927 75.119 18.7956 75.9041 18.0356 75.1352C16.5042 73.5859 14.8246 71.6503 14.5661 68.5768Z" fill="#463227" stroke="#463227" stroke-miterlimit="16" stroke-linejoin="round"/>
<path d="M23.4828 55.7102C24.006 54.8427 25.3391 55.2136 25.3391 56.2267L25.3391 69.694C25.3391 70.2463 24.8914 70.694 24.3391 70.694H16.217C15.4387 70.694 14.9587 69.844 15.3607 69.1775L23.4828 55.7102Z" fill="#D3A394"/>
<path d="M34.7221 34.1446C34.7221 34.1446 45.3027 34.6141 51.558 40.3687C57.8132 46.1234 60.9242 52.9048 60.9242 60.2782V78.1662C60.9242 85.5287 69.2101 87.8153 69.2101 87.8153C70.4858 85.9929 71.1061 84.0597 71.9004 77.5853V34.1446H34.7221Z" fill="#463227"/>
<path d="M0.053772 34.5165L74.7407 34.5164V0.92688L0.053772 34.5165Z" fill="#D17792"/>
<path fill-rule="evenodd" clip-rule="evenodd" d="M74.7408 19.2997V34.5165L59.524 34.5165C59.524 26.1125 66.3368 19.2997 74.7408 19.2997Z" fill="#BD4E6F"/>
</svg>
